<?xml version="1.0" encoding="UTF-8"?>
<svg id="Layer_1" data-name="Layer 1" xmlns="http://www.w3.org/2000/svg" viewBox="0 0 100 100">
  <defs>
    <style>
      .cls-1 {
        fill: #fafaff;
      }

      .cls-2 {
        fill: #4b39d3;
      }
    </style>
  </defs>
  <circle class="cls-2" cx="50.73" cy="49.59" r="50"/>
  <g id="_5KbESc.tif" data-name="5KbESc.tif">
    <g>
      <path class="cls-1" d="M77.33,46.89c0,.2,.1,.4,.2,.6,.6,1.5,1.2,3,1.5,4.6,.4,1.7,.6,3.5,.6,5.3v14.1c0,1.2-.4,2.3-1.3,3.2-1.2,1.2-3.1,1.6-4.7,.9-1.7-.7-2.6-2.1-2.7-3.9v-2.1c0-.2-.1-.3-.3-.3-1.6,.2-3.3,.4-4.9,.5-1.3,.1-2.6,.2-3.9,.3-3.7,.3-7.3,.4-11,.4-3.5,0-7-.1-10.5-.4-2.9-.2-5.7-.5-8.6-.8h-.1q-.3,0-.3,.3v1.9c0,.4,0,.8-.1,1.1-.4,1.8-2.1,3.4-4.3,3.3-2.1-.1-3.9-1.7-4.1-3.7,0-.3-.1-.5-.1-.8v-14.3c0-2.6,.5-5.1,1.4-7.5,.3-.8,.6-1.7,.9-2.5-.1-.1-.3-.1-.4-.1h-1.3c-1.8-.1-3.2-1.7-3.1-3.5s1.5-3.3,3.3-3.3h3.7c.3,0,.5-.1,.6-.4,1.4-3.4,2.8-6.7,4.2-10.1,.4-1,1.1-1.8,2.1-2.2,1.3-.6,2.7-1,4.2-1.1,4.9-.5,9.9-.5,14.8-.5,2.5,0,4.9,.1,7.4,.2,1.4,.1,2.8,.2,4.2,.4,1.2,.2,2.4,.6,3.5,1.1,.9,.4,1.5,1.1,1.8,2,1.4,3.4,2.8,6.7,4.2,10.1,0,.1,.1,.1,.1,.2,.1,.3,.2,.3,.5,.3h3.8c1.9,0,3.4,1.6,3.4,3.4,0,1.7-1.4,3.2-3.1,3.3h-1.2c-.1-.1-.3-.1-.4,0Zm-46.2-2.8c0,.5,.3,.9,.9,1,.3,.1,.7,.1,1,.1,1,.1,2.1,.1,3.1,.2q.3,0,.4-.3c.3-.9,.8-1.7,1.6-2.4,.4-.4,.9-.6,1.5-.7,1.1-.1,2.2-.1,3.3-.1,1.4,0,2.5,.6,3.2,1.8,.5,.7,.7,1.5,.9,2.3q.1,.7,.8,.7h7c.2,0,.3-.1,.3-.3s.1-.4,.1-.7c.2-1.2,.7-2.2,1.6-3,.5-.4,1.1-.7,1.8-.8,1.2-.1,2.5-.1,3.7,0,.8,.1,1.5,.4,2.1,1,.6,.6,1,1.3,1.2,2.1,.1,.2,.2,.3,.4,.3,.7-.1,1.4-.1,2-.1,.7-.1,1.4-.1,2.1-.2,.7-.1,1.1-.7,.8-1.4-.1-.2-.2-.4-.2-.7-.9-2.4-1.5-4.9-2.2-7.3-.3-1.1-.6-2.3-1-3.4-.3-.9-.9-1.5-1.8-1.6-3.7-.6-7.3-.9-11.1-1-5.8-.2-11.9,.1-17.9,1-1.2,.2-1.8,.8-2.1,1.9-.3,1.1-.6,2.2-.9,3.2-.8,2.7-1.4,5.4-2.4,8-.1,.1-.2,.2-.2,.4Zm0,14.5c1.9,0,3.4-1.5,3.4-3.4s-1.5-3.4-3.4-3.4-3.4,1.5-3.4,3.4,1.5,3.4,3.4,3.4Zm40.2,0c1.9,0,3.4-1.5,3.4-3.4s-1.5-3.4-3.4-3.4-3.4,1.5-3.4,3.4,1.5,3.4,3.4,3.4Z"/>
      <path class="cls-1" d="M37.93,37.29c0-2.1,1.7-3.9,3.9-3.9s3.9,1.7,3.9,3.9-1.8,3.9-3.9,3.8c-2.2,.1-3.9-1.7-3.9-3.8Z"/>
      <path class="cls-1" d="M64.43,37.29c0,2.1-1.7,3.9-3.9,3.9s-3.9-1.7-3.9-3.9,1.8-3.9,3.9-3.8c2.2-.1,3.9,1.7,3.9,3.8Z"/>
    </g>
  </g>
</svg>