<?xml version="1.0" encoding="UTF-8"?>
<svg id="Layer_1" data-name="Layer 1" xmlns="http://www.w3.org/2000/svg" viewBox="0 0 100 100">
  <defs>
    <style>
      .cls-1 {
        fill: #fff;
      }

      .cls-2 {
        fill: #4b39d3;
      }
    </style>
  </defs>
  <circle class="cls-2" cx="49.98" cy="49.62" r="49.4"/>
  <g>
    <path class="cls-1" d="M47.19,69.98c-6.86,0-12.44-5.58-12.44-12.44,0-3.77,1.69-7.16,4.35-9.44l-.53-5.16c-4.99,2.95-8.34,8.39-8.34,14.6,0,9.35,7.61,16.96,16.95,16.96,5.92,0,11.14-3.05,14.17-7.66l-2.27-5.69c-1.55,5.11-6.3,8.83-11.91,8.83Z"/>
    <path class="cls-1" d="M75.37,63.1c-.53-1.13-1.88-1.6-3.01-1.07l-4.33,2.06-5.43-13.62c-.34-.86-1.17-1.37-2.1-1.37h-14.04l-.43-4.22h10.86c1.25,0,2.26-.98,2.26-2.23s-1.01-2.23-2.26-2.23h-11.31l-.69-6.8c2.24-.44,3.93-2.42,3.93-4.79,0-2.69-2.18-4.88-4.88-4.88s-4.88,2.18-4.88,4.88c0,1.19,.42,2.27,1.13,3.12l1.08,10.55c0,.05,0,.1,0,.15,0,.21,.03,.41,.08,.61l.83,8.14c.12,1.15,1.09,1.93,2.25,1.93h14.55l5.76,14.56c.23,.58,.69,1.14,1.27,1.36,.27,.1,.55,.16,.83,.16,.33,0,.66-.07,.96-.22l6.5-3.07c1.13-.53,1.61-1.88,1.08-3Z"/>
  </g>
</svg>