<?xml version="1.0" encoding="UTF-8"?>
<svg id="Layer_1" data-name="Layer 1" xmlns="http://www.w3.org/2000/svg" viewBox="0 0 100 100">
  <defs>
    <style>
      .cls-1 {
        fill: #fff;
      }

      .cls-2 {
        fill: #4b39d3;
      }
    </style>
  </defs>
  <circle class="cls-2" cx="49.73" cy="49.59" r="49.4"/>
  <g>
    <path class="cls-1" d="M86.33,57.99c-.3,1.4-.6,2.8-1.4,4.1-2.1,3.7-5.3,5.8-9.6,6.1-6.6,.4-12.3-4.9-12.2-11.8,.1-4.4,2.2-7.7,6.1-9.9,.8-.5,.9-.5,.6-1.3-.3-1-.6-2-1-3-.1-.4-1-1-1.4-1-.2,0-.3,.2-.4,.4-.3,.5-.7,1-1.2,1.4-.3,.2-.4,.4-.5,.7-1.5,4.1-3.1,8.2-4.6,12.2-.1,.3-.1,.5,0,.8,.7,3.2-1.4,5.9-4.7,5.9h-13.1c-.7,0-1.1,.2-1.5,.8-2.2,3.1-5.2,4.8-9.1,4.9-3.4,.1-6.2-1.1-8.6-3.5-.3-.3-.6-.4-1-.4-1.4,.2-2.7,.3-4.1,.4-1.1,.1-1.6-.4-1.7-1.4v-4.1c0-1,.4-1.4,1.4-1.5,.5-.1,1,0,1.6,0,.4,0,.6-.2,.6-.6q0-1.5-1.5-1.5h-.6c-.9-.1-1.4-.5-1.3-1.4,0-2.2,.6-4.2,1.7-6.1,.3-.5,.3-.9,0-1.4-1.5-2.3-2-4.8-1.8-7.6,.1-2.2,0-4.4,0-6.6,0-2.7,2-4.6,4.7-4.7h3.4c2.6,0,4.6,2,4.7,4.6v2.7c0,.9,0,.8,.9,.8,3-.1,6-.3,8.9,.1,2.2,.3,4.4,.8,6.7,1,1.2,.1,2.5,0,3.7,.1,.3,0,.6-.2,.9-.4,1.4-.9,2.8-1.9,4.4-2.5,.9-.4,1.9-.5,2.9-.5,1.8-.1,3.7-.2,5.5,.1,.5,.1,1.1,.3,1.5,.5,.3,.2,.5,.2,.7-.2,.5-1.1,.3-1.6-1-1.9-1.2-.2-2.4-.5-3.6-.7-.2,0-.4-.1-.6-.2-.6-.3-.9-.8-.7-1.4s.7-1,1.3-.9c1.9,.4,3.8,.7,5.6,1.1,.5,.1,.9,.4,1,.9,.1,.3,.3,.5,.6,.4,.4-.1,.5-.3,.5-.7v-1.7c0-.6,.2-1,.8-1.2,1.1-.5,2.1-1.1,3.2-1.6,.4-.2,.7-.5,.6-1v-1c.1-.7,.6-1.1,1.2-1,.6,0,1.1,.4,1.1,1.1v4.7c0,.6-.5,1.1-1.1,1.1s-1.1-.3-1.2-.9c-.1-.7-.4-.6-.8-.3-.2,.1-.3,.2-.5,.3-.9,.3-1.2,.9-1.1,1.8,.1,.4,.1,.7,.5,1,1.2,.8,1.8,1.9,1.8,3.3v2.2c0,1.6-.6,2.8-1.9,3.6-.5,.3-.5,.6-.4,1.1,.3,.9,.6,1.7,.8,2.6,.1,.5,.4,.6,.9,.6,2.9-.4,5.5,.2,7.9,1.7,2.8,1.8,4.5,4.4,5.1,7.7,0,.2,.1,.4,.2,.7,.2,.6,.2,1.5,.2,2.4Zm-54.3-4.9h11.7q.9,0,.7-.9c-.6-2.6-1.9-4.8-4.1-6.4-1.6-1.1-3.4-1.8-5.4-1.9-2.3-.1-4.6-.2-6.9,.1-4.3,.7-7.5,3.8-8.4,8-.2,.9-.2,1,.8,1,3.8,.1,7.7,.1,11.6,.1Zm42.9,12.8c.8,.1,1.6-.1,2.5-.4,4.1-1.2,6.7-4.9,6.6-9.3-.1-1.9-.8-3.7-2-5.2-.7-.9-.8-1-1.7-.1-.1,.1-.2,.2-.4,.3-.5,.3-.4,.5-.1,.9,1.2,1.3,1.8,2.8,1.8,4.5,.1,3.1-2.1,6-5.1,6.8-3.1,.8-6.3-.5-7.9-3.4-.2-.4-.2-1.2-.7-1.2-.4,0-.8,.5-1.3,.7-.4,.2-.5,.5-.3,.9,1.3,3.2,4.8,5.5,8.6,5.5ZM23.33,34.69h-3.3c-.5,0-.8,.1-.8,.7v5.5c0,.5,.2,.7,.7,.7h6.7c.5,0,.7-.2,.7-.7v-5.5c0-.5-.2-.7-.7-.7h-3.3Zm-4,26.5q0,1.1,1,1c2.4-.2,4.8-.4,7.1-.7,2.6-.2,5.2-.5,7.8-.7,2.8-.2,5.6-.7,8.5-.6h4.2c.2,0,.6,.1,.7-.1,.1-.3-.1-.7-.3-.9s-.5-.1-.8-.1c-3.7-.1-7.3,.2-10.9,.3-1.9,.1-3.8,.2-5.7,.3-3.5,.2-6.9,.4-10.4,.5-1.2-.1-1.2-.2-1.2,1Zm30.4-11.5h-2.9c-.4,0-.6,.1-.5,.6,.4,1.1,.6,2.3,.7,3.4,0,.2,0,.5,.3,.5,.9,0,1.8,.3,2.6-.1,.8-.5,1.6-.9,2.6-.9,.4,0,.6-.2,.5-.7-.2-.7-.2-1.5,0-2.2,.1-.5,0-.6-.5-.6-.9,.1-1.9,0-2.8,0Zm-11,13.2c-.9,0-11.4,.9-12,1.2,3.1,2.6,8.8,2.4,12-1.2Zm17.5-24v-2.1c0-.5-.2-.6-.6-.4-.9,.3-1.6,1-2.4,1.4-1.4,.6-1.8,1.6-1.6,3.1v.1c0,.5,.2,.7,.6,.6h3.3c.5,0,.7-.2,.7-.7v-2Zm-32.9-6.5h3.5c.4,0,.5-.2,.4-.6-.2-.9-1.1-1.7-2-1.7h-3.8c-.9,0-1.7,.7-2,1.6-.2,.5-.1,.7,.5,.7h3.4Zm35.2,6.4v1.3c0,1.7-.2,1.5,1.6,1.5,.6,0,.7-.2,.7-.8v-3.4c0-1.7,.3-1.5-1.6-1.5-.5,0-.7,.2-.6,.6,0,.8-.1,1.6-.1,2.3Zm-1.3,14.3h.7c1,0,1.6-.7,1.7-1.6,0-1-.6-1.7-1.6-1.8h-1.3c-.8,.1-1.4,.7-1.5,1.4-.1,.8,.3,1.5,1,1.8,.3,.3,.8,.2,1,.2Zm-2.1-9.2h-.5c-1.8,0-1.6-.1-1.3,1.6q.4,2,2.4,1.9h.1c.3,0,.5-.1,.6-.5,.2-.8,.3-1.6,.5-2.4,.1-.4-.1-.6-.5-.6h-1.3Zm5.9,0c-1.7,0-1.4-.2-1.8,1.5v.2q-.4,1.9,1.6,1.8c.4,0,.7-.1,.8-.6,.2-.5,.4-.9,.5-1.4,.6-1.6,.8-1.4-1.1-1.5Zm4.4-4.9c0-1.4-.7-2.5-1.7-2.9-.4-.1-.6-.1-.6,.4v4.4c0,.6,.3,.6,.7,.4,1.1-.5,1.6-1.4,1.6-2.3Z"/>
    <path class="cls-1" d="M23.33,39.29c-1.1,0-1.7-.4-1.7-1.1,0-.8,.6-1.2,1.7-1.2h.7c.6,.1,1.1,.6,1.1,1.2s-.5,1.1-1.2,1.1h-.6Z"/>
  </g>
</svg>