<?xml version="1.0" encoding="UTF-8"?>
<svg id="Layer_1" data-name="Layer 1" xmlns="http://www.w3.org/2000/svg" viewBox="0 0 100 100">
  <defs>
    <style>
      .cls-1 {
        fill: #fff;
      }

      .cls-2 {
        fill: #4b39d3;
      }
    </style>
  </defs>
  <circle class="cls-2" cx="50.09" cy="49.62" r="49.4"/>
  <g id="Drkl08.tif">
    <g>
      <path class="cls-1" d="M28.03,44.67c1.89-2.64,3.18-5.53,5.12-8.05,1.19-1.54,2.62-2.37,4.43-2.64,8.4-1.25,16.83-1.19,25.25-.04,2.23,.31,3.72,1.58,4.89,3.37,1.56,2.39,3.08,4.8,4.64,7.28,1.06-.6-1.25-3.08,1.44-2.77,1.48,.19,3.24,.42,3.51,2.12,.44,2.72-2.52,1.29-3.54,2.56,.52,.56,1.06,1.14,1.58,1.73,2.7,3.04,4.39,6.32,4.2,10.63-.21,4.74,.25,9.53-.31,14.25-.19,1.6-1.37,3.2-3.47,3.24-2.2,.04-4.43,.04-6.63,.04-1.33,0-2.37-.69-2.37-1.98-.02-1.54-.83-1.48-1.87-1.48-9.84,.02-19.68,.02-29.53,0-1.04,0-1.64,.06-1.64,1.39s-.96,2.04-2.29,2.04c-2.2,.02-4.43,.1-6.63,0-1.98-.1-2.97-1.33-3.37-3.27-.69-3.47-.37-6.99-.54-10.46-.33-6.24,.46-12,5.89-15.91-.98-1.6-4.31,.06-3.54-2.93,.44-1.73,2.35-2.08,3.89-1.91,1.91,.17,.12,1.83,.92,2.79Zm21.92-.19h17.47c2.75,0,2.89-.17,1.54-2.64-.85-1.58-1.85-3.1-2.85-4.6-.77-1.14-1.83-1.75-3.27-1.85-8.44-.6-16.87-.6-25.31,.02-1.35,.1-2.39,.56-3.1,1.66-1.14,1.79-2.2,3.62-3.31,5.45-.98,1.64-.4,2.02,1.37,2,5.8-.1,11.63-.04,17.45-.04Zm.54,19.49c3.81,.25,8.11-.17,12.35-1.04,1.33-.27,2.89-.81,2.91-2.52,.02-1.6-1.12-2.64-2.54-3.29-.52-.23-1.08-.42-1.64-.44-7.74-.33-15.45-.92-23.19,.33-2.18,.35-3.51,1.29-3.7,3.12-.23,2.2,1.85,2.6,3.54,2.93,3.87,.77,7.8,.92,12.27,.89Zm-16.97,5.03h33.51c-4.18-2.95-29.97-2.89-33.51,0Zm-.35-12.23c0-.69-.6-.69-1.02-.85-1.96-.77-3.93-1.54-5.91-2.27-.83-.31-1.77-1.12-2.52,.23-.64,1.19-.44,2.23,.5,3.1,1.33,1.25,2.97,1.98,4.62,2.68,1.58,.69,4.37-1.19,4.33-2.89Zm42.47-3.64c-2.35,.89-4.49,1.64-6.57,2.5-.69,.29-2.27,.19-1.6,1.46,.6,1.19,1.16,3.29,2.83,2.93,2.43-.5,4.8-1.58,6.41-3.7,.52-.71,.52-1.58,.02-2.29-.29-.42-.69-.94-1.08-.89Zm-3.45,11.13c-1.33,.29-3.51-.06-3.87,1.52-.31,1.35,1.81,2,2.87,2.93,.21,.19,.6,.27,.92,.25,1.37-.08,3.14,.48,3.45-1.66,.25-1.77-1.23-3.08-3.37-3.04Zm-44.82,4.72c1.19,.06,5.07-2.25,4.83-2.95-.62-1.77-2.41-1.6-3.85-1.73-2.2-.21-3.45,.87-3.49,2.77-.02,1.79,1.27,1.81,2.52,1.91Z"/>
      <path class="cls-1" d="M74.37,30.59c-.42,1.23,0,1.73,1.33,1.91,5.51,.83,8.57,5.76,6.61,11.06-.81,2.23-.92,3.58,.98,5.3,2.12,1.93,2.6,4.74,1.77,7.51-.4,1.31-.21,2.25,.42,3.41,1.6,2.91,1.19,5.84-.44,8.65-.44,.75-1.06,1.39-2,.87-.98-.54-.64-1.29-.19-2.08,1.58-2.68,1.62-5.28-.56-7.67-.67-.73-.62-1.37-.27-2.23,1.5-3.72,1-5.3-1.83-8.01-1.27-1.23-2.04-2.89-1.02-4.78,2.72-5.12,.81-8.44-4.76-9.65-1.75-.37-3.39-.52-5.12-.69-1.85-.19-3.27-1.27-3.66-3.14-.37-1.77-1.21-2.06-2.54-1.04-1.33,1.02-2.12,.62-3-.62-1.14-1.66-2.83-2.31-4.74-1.6-1.23,.46-1.75-.1-2.48-.87-2.29-2.5-4.24-2.56-6.74-.23-.64,.6-1.23,.96-2.14,.89-1.71-.12-3.02,.64-3.93,2.06-.73,1.12-1.46,1.23-2.64,.52-2.1-1.25-3.41-.81-4.49,1.5-.48,1.02-.87,1.77-2.12,1.41-.92-.25-1.06,.42-1.35,1.02-1.73,3.64-3.79,4.83-7.61,4.08-1.19-.23-1.39,.12-1.64,1.06-.5,1.79-.17,3.43,.77,4.95,1.33,2.14,.58,3.89-1.04,5.35-2.37,2.1-3.1,4.26-1.91,7.24,.52,1.27,.6,2.16-.33,3.33-1.71,2.12-1.71,4.53-.37,6.91,.44,.79,1.23,1.62,.1,2.31-1.14,.69-1.83-.27-2.31-1.14-1.56-2.87-1.66-5.82-.04-8.67,.54-.94,.67-1.66,.35-2.7-1-3.37-.21-6.34,2.43-8.69,1.1-1,1.37-1.93,.64-3.2-.29-.5-.56-1.06-.58-1.6-.29-4.2,.02-8.4-.23-12.62-.17-2.68,2.54-3.81,5.47-4.2,3.08-.42,4.8,.79,6.09,3.24,.54,1.04,1.16,1.16,1.79,.19,1.66-2.56,3.89-3.37,6.78-2.41,.15,.04,.4,.1,.48,.04,1.85-2.06,4.8-1.83,6.88-3.33,2.91-2.08,5.8-2.12,8.67,.15,.5,.4,.89,.98,1.66,.87,2.35-.33,4.14,.77,6.11,1.91,1.39,.79,3.56,.27,5.24-.5,1.21-.54,2.45-1.16,3.76-1.1,2.37,.04,3.93,2.33,3.72,5.05Zm-47.03,1.54c.02-2.06-1.68-3.68-3.79-3.66-2.16,.02-3.68,1.56-3.66,3.74,0,2.06,1.68,3.76,3.74,3.72,2-.02,3.68-1.75,3.7-3.81Zm45.28-2.29c-.23-1.54-1.02-2.66-2.64-2.66s-2.64,.98-2.66,2.6c-.02,1.6,.96,2.6,2.58,2.64,1.66,.04,2.43-1.04,2.72-2.58Z"/>
      <path class="cls-1" d="M33.3,19.51c.1-2.66,2.48-4.72,5.2-4.53,2.37,.17,4.39,2.45,4.28,4.87-.1,2.62-2.27,4.72-4.76,4.66-2.66-.08-4.83-2.37-4.72-4.99Zm4.7,2.52c1.33-.25,2.25-.87,2.25-2.37,0-1.39-.87-2.14-2.12-2.18-1.27-.04-2.2,.75-2.31,2.06-.12,1.44,.83,2.16,2.18,2.5Z"/>
      <path class="cls-1" d="M57.55,13.25c2.08,0,3.76,1.66,3.79,3.7,.02,2.2-1.68,4.01-3.79,4.01s-3.76-1.75-3.74-4.01c.02-2.06,1.68-3.7,3.74-3.7Zm1.29,4.01c0-.92-.42-1.46-1.27-1.48-.73-.02-1.21,.4-1.27,1.16-.06,.87,.4,1.39,1.25,1.41,.71,0,1.23-.35,1.29-1.1Z"/>
    </g>
  </g>
</svg>